<?xml version="1.0" encoding="UTF-8" standalone="no"?>
<!DOCTYPE svg PUBLIC "-//W3C//DTD SVG 1.1//EN" "http://www.w3.org/Graphics/SVG/1.1/DTD/svg11.dtd">
<svg width="100%" height="100%" viewBox="0 0 500 500" version="1.1" xmlns="http://www.w3.org/2000/svg" xmlns:xlink="http://www.w3.org/1999/xlink" xml:space="preserve" xmlns:serif="http://www.serif.com/" style="fill-rule:evenodd;clip-rule:evenodd;stroke-linejoin:round;stroke-miterlimit:2;">
    <g transform="matrix(0.90136,0,0,1.02549,4.56792,-29.2322)">
        <g id="Herz">
            <path d="M448.069,57.839C375.394,34.277 297.288,73.598 272.348,145.737C247.41,73.522 169.303,34.277 96.628,57.839C23.111,81.784 -16.975,160.885 6.894,234.708C29.844,305.088 242.667,493.584 269.9,493.584C297.134,493.584 514.701,305.317 537.651,234.708C561.595,160.732 521.509,81.631 448.069,57.839Z" style="fill:rgb(226,30,42);fill-opacity:0.78;fill-rule:nonzero;stroke:black;stroke-width:4.14px;"/>
        </g>
    </g>
    <g transform="matrix(26.4233,0,0,22.8859,94.3275,109.566)">
        <g id="Diagramm">
            <path d="M2.126,8.744L3.731,8.744C3.881,8.744 4.013,8.643 4.053,8.499L4.545,6.719L5.248,10.623C5.279,10.794 5.433,10.914 5.606,10.896C5.778,10.881 5.911,10.737 5.911,10.564L5.911,8.744L6.861,8.744C7.027,8.744 7.168,8.623 7.192,8.458L7.718,4.839L8.86,11.144C8.889,11.302 9.027,11.417 9.187,11.417L9.189,11.417C9.349,11.417 9.487,11.304 9.517,11.147L10.027,8.52L10.283,8.52L10.668,9.172C10.727,9.272 10.833,9.334 10.949,9.336C11.058,9.34 11.174,9.281 11.236,9.184L11.619,8.594L12.08,8.594C12.265,8.594 12.414,8.444 12.414,8.26C12.414,8.074 12.265,7.925 12.08,7.925L11.438,7.925C11.326,7.925 11.219,7.983 11.158,8.077L10.97,8.367L10.763,8.015C10.703,7.913 10.593,7.851 10.475,7.851L9.752,7.851C9.592,7.851 9.454,7.964 9.424,8.121L9.201,9.269L8.012,2.702C7.983,2.541 7.836,2.419 7.677,2.427C7.513,2.43 7.375,2.551 7.352,2.714L6.573,8.074L5.578,8.074C5.541,8.074 5.506,8.08 5.473,8.091L4.944,5.154C4.916,5.001 4.786,4.886 4.63,4.88C4.458,4.856 4.334,4.974 4.293,5.125L3.478,8.075L2.126,8.075C1.941,8.075 1.792,8.224 1.792,8.409C1.792,8.594 1.941,8.744 2.126,8.744Z" style="fill:white;fill-rule:nonzero;stroke:black;stroke-width:0.06px;"/>
        </g>
    </g>
    <g transform="matrix(0.128976,-0.176615,0.176615,0.128976,-21.9843,183.835)">
        <g id="Tabletten">
            <g>
                <path d="M239.85,754.5C285.95,754.5 330.15,741.301 367.95,716.699C366.75,705.4 366.05,694 366.05,682.5C366.05,679.9 366.05,677.301 366.15,674.699C366.55,656.4 368.55,638.4 372.15,620.699C376.251,600.301 382.45,580.301 390.65,560.9C406.35,523.699 428.85,490.3 457.55,461.699C458.949,460.3 460.449,458.899 461.85,457.5L264.35,260.1L405.95,118.5C437.25,87.2 478.85,70 523.15,70C567.449,70 609.05,87.2 640.349,118.5C671.65,149.8 688.849,191.4 688.849,235.7C688.849,280 671.65,321.6 640.349,352.9L616.749,376.5C634.849,372.9 653.249,370.9 671.948,370.5C674.149,370.5 676.348,370.4 678.55,370.4C690.849,370.4 703.15,371.1 715.249,372.5C743.649,332.8 758.948,285.4 758.948,235.7C758.948,172.7 734.448,113.6 689.948,69C645.449,24.5 586.25,0 523.25,0C460.25,0 401.15,24.5 356.55,69L73.25,352.2C28.75,396.7 4.25,455.9 4.25,518.9C4.25,581.9 28.75,641 73.25,685.599C117.75,730 176.95,754.5 239.85,754.5Z" style="fill:white;fill-rule:nonzero;stroke:black;stroke-width:9.15px;"/>
                <path d="M691.35,400.7C687.051,400.501 682.75,400.4 678.35,400.4C665.151,400.4 652.25,401.3 639.551,403.1C615.949,406.3 593.35,412.5 571.949,421.2C538.75,434.7 508.65,454.4 483.15,478.9C454.751,506.1 432.05,539.199 416.95,576.199C408.251,597.599 402.051,620.199 398.85,643.801C397.15,656.5 396.15,669.401 396.15,682.6C396.15,686.801 396.251,690.901 396.45,695.1C399.15,757.401 422.051,814.401 458.751,859.801L855.551,463.001C810.25,426.4 753.35,403.5 691.35,400.7Z" style="fill:white;fill-rule:nonzero;stroke:black;stroke-width:9.15px;"/>
                <path d="M897.949,505.4L501.15,902.199C549.55,941.301 611.25,964.801 678.349,964.801C834.249,964.801 960.55,838.5 960.55,682.6C960.551,615.5 937.051,553.801 897.949,505.4Z" style="fill:white;fill-rule:nonzero;stroke:black;stroke-width:9.15px;"/>
            </g>
        </g>
    </g>
</svg>
