<?xml version="1.0" standalone="no"?>
<!DOCTYPE svg PUBLIC "-//W3C//DTD SVG 20010904//EN"
 "http://www.w3.org/TR/2001/REC-SVG-20010904/DTD/svg10.dtd">
<svg version="1.0" xmlns="http://www.w3.org/2000/svg"
 width="500.000000pt" height="500.000000pt" viewBox="0 0 500.000000 500.000000"
 preserveAspectRatio="xMidYMid meet">
<metadata>
Created by potrace 1.14, written by Peter Selinger 2001-2017
</metadata>
<g transform="translate(0.000000,500.000000) scale(0.100000,-0.100000)"
fill="#000000" stroke="none">
<path d="M1168 4780 c-85 -10 -214 -44 -292 -76 -413 -172 -708 -550 -817
-1044 -27 -124 -37 -402 -19 -533 34 -253 95 -407 265 -672 295 -459 947
-1208 1506 -1731 413 -387 603 -528 687 -509 194 42 1014 804 1629 1512 465
536 723 926 793 1197 43 168 54 271 47 468 -8 260 -48 422 -162 654 -111 228
-272 415 -466 543 -551 363 -1247 214 -1646 -352 -60 -85 -156 -265 -175 -328
-6 -22 -14 -39 -18 -39 -4 0 -13 19 -19 42 -23 76 -128 265 -199 360 -278 370
-689 557 -1114 508z m-142 -520 c132 -46 235 -132 293 -248 l31 -62 -52 -71
-52 -71 -13 51 c-47 187 -197 300 -382 289 -138 -8 -252 -82 -311 -202 -48
-96 -48 -158 -5 -426 19 -123 39 -227 43 -231 4 -3 129 13 277 37 149 24 281
43 295 43 23 1 27 -5 44 -70 29 -112 78 -200 166 -292 43 -46 95 -92 115 -102
36 -20 36 -21 30 -65 -38 -252 -281 -448 -530 -426 -187 17 -340 118 -423 281
-31 62 -37 91 -112 570 -62 393 -71 462 -67 545 10 196 116 351 298 434 105
49 242 55 355 16z m1039 -210 c241 -91 398 -313 399 -565 0 -108 -15 -175 -61
-275 -60 -127 -222 -268 -350 -305 -18 -5 -23 -1 -28 17 -3 13 -43 271 -90
573 -47 303 -87 558 -89 569 -5 18 1 18 77 13 48 -3 107 -14 142 -27z m-278
-586 c50 -324 90 -591 88 -593 -2 -2 -40 2 -85 8 -155 23 -250 70 -356 175
-103 104 -152 203 -174 352 -36 243 103 499 330 613 46 23 88 40 94 38 6 -2
52 -267 103 -593z m1240 -144 c25 -23 13 28 193 -835 78 -374 143 -687 146
-695 9 -25 19 4 48 134 29 131 37 151 66 166 10 5 72 10 137 10 135 0 144 -4
194 -77 l32 -46 21 29 c53 74 54 74 184 74 135 0 165 -12 165 -65 0 -47 -33
-65 -120 -65 -83 0 -71 9 -165 -110 -32 -39 -52 -56 -72 -58 -56 -7 -74 6
-133 94 l-57 85 -40 -3 -41 -3 -68 -305 c-59 -269 -71 -308 -93 -327 -34 -30
-78 -30 -109 2 -14 13 -25 28 -25 32 0 19 -299 1436 -304 1441 -3 3 -8 3 -9 1
-2 -2 -32 -175 -66 -384 -35 -209 -67 -401 -73 -428 -14 -69 -35 -77 -202 -77
l-135 0 -3 -226 c-3 -224 -3 -226 -27 -245 -25 -21 -71 -25 -101 -9 -26 14
-30 29 -125 490 -96 464 -94 455 -105 444 -4 -5 -38 -102 -74 -216 -50 -155
-72 -211 -88 -223 -19 -12 -62 -15 -256 -15 -270 0 -291 5 -292 72 0 17 9 34
26 47 25 20 40 21 219 21 l193 0 55 173 c31 94 81 252 112 349 59 188 72 208
127 208 15 0 38 -10 52 -22 26 -23 44 -100 156 -650 l11 -58 153 0 152 0 105
623 c92 548 107 625 126 645 28 28 81 29 110 2z"/>
</g>
</svg>
